<?xml version="1.0" encoding="utf-8"?>
<!-- Generator: Adobe Illustrator 21.1.0, SVG Export Plug-In . SVG Version: 6.00 Build 0)  -->
<svg version="1.1" id="Calque_1" xmlns="http://www.w3.org/2000/svg" xmlns:xlink="http://www.w3.org/1999/xlink" x="0px" y="0px"
	 viewBox="0 0 566.9 566.9" style="enable-background:new 0 0 566.9 566.9;" xml:space="preserve">
<style type="text/css">
	.st0{fill:#FFFFFF;}
	.st1{stroke:#FFFFFF;stroke-width:2;}
	.st2{fill:#FFFFFF;stroke:#000000;stroke-miterlimit:10;}
</style>
<rect width="566.9" height="566.9"/>
<path class="st0" d="M37.9,333.6C37.9,198,147.9,88,283.5,88S529,198,529,333.6"/>
<path d="M103.7,347.6c0,0,28.7-62.6,7.2-117.7c0,0,21.1,90,8,117.7"/>
<path d="M113.4,345c0,0,22.3-19.5,19.9-44.6c0,0-2.7,38.6-12.8,47.2"/>
<path d="M89.6,347.6c0,0,16.4-16.2-5.1-71.3c0,0,33.4,43.6,20.3,71.3"/>
<path d="M449.1,346.6c0,0-23.2-50.8-5.8-95.5c0,0-17.1,73-6.5,95.5"/>
<path d="M460.5,346.6c0,0-13.3-13.2,4.1-57.9c0,0-27.1,35.4-16.4,57.9"/>
<path d="M422.6,346.6c0,0,13.3-13.2-4.1-57.9c0,0,27.1,35.4,16.4,57.9"/>
<path d="M307.9,264.7l22.6,78.7c0.4,1.5,2.5,1.5,2.9,0l15.2-57.6C348.6,285.7,318.8,269.1,307.9,264.7z"/>
<path d="M377.8,261.7L356,337.7c-0.6,2-3.4,1.9-3.9,0l-14.5-55.1C337.6,282.5,367.1,266.1,377.8,261.7z"/>
<path d="M207.9,264.7l22.6,78.7c0.4,1.5,2.5,1.5,2.9,0l15.2-57.6C248.6,285.7,218.8,269.1,207.9,264.7z"/>
<path d="M277.8,261.7L256,337.7c-0.6,2-3.4,1.9-3.9,0l-14.5-55.1C237.6,282.5,267.1,266.1,277.8,261.7z"/>
<path class="st1" d="M229.6,286.8c-25.2,0-46.1-21.3-46.1-44.8c0-2-1.4-31.7,30.8-44.1c0,0,2.6-40.2,41-47.7
	c7.3-1.4,32.4-6.1,56.2,22.8c6.5-2,49.4-7.8,55.5,38.7c0,0,30.8,9,30.8,38.7c0,18.7-10.7,36.4-38.8,36.4H229.6L229.6,286.8z"/>
<path class="st1" d="M216.8,191.1c0,0-2.9,48.9-79,14c0,0-25.9-10.3,42.3-40.1c0,0,53.1,2.9,64,18.3
	C244.1,183.3,234.9,196.7,216.8,191.1z"/>
<circle class="st2" cx="180.6" cy="184.1" r="7.9"/>
<g>
	<path class="st0" d="M60.8,418.9c-5.9,0.4-9.1,4.7-9.6,12.9c0.4,8.2,3.6,12.4,9.6,12.7c4.4-0.2,7.3-2.6,8.7-7.1h-8.7v-11.2h40.5
		c0.2,5.7,0.1,9.5-0.3,11.3c-1.3,9-4.9,16.3-10.6,22c-7.4,7.4-17.3,11.2-29.6,11.2c-12.3,0-22.1-3.7-29.5-11.2
		c-6.9-6.8-10.7-16.1-11.2-27.8c0.4-11.8,4.1-21.1,11.2-27.8c7.3-7.4,17.2-11.2,29.5-11.2c12.3,0,22.2,3.7,29.6,11.2
		c4,4,7,9,8.8,14.9H60.8z"/>
	<path class="st0" d="M104.8,468.7v-60.2c0-10.4,5.5-15.7,16.4-15.7c11.1,0,16.6,5.2,16.6,15.7v39.6h22.3v20.6H104.8z"/>
	<path class="st0" d="M203.8,470.8c-12.3,0-22.1-3.7-29.5-11.2c-6.9-6.8-10.7-16.1-11.2-27.8c0.4-11.8,4.1-21.1,11.2-27.8
		c7.3-7.4,17.2-11.2,29.5-11.2c12.3,0,22.2,3.7,29.6,11.2c6.8,6.7,10.6,16,11.2,27.8c-0.6,11.7-4.3,20.9-11.2,27.8
		C226,467,216.2,470.8,203.8,470.8z M213.5,431.8c-0.4-8.2-3.6-12.5-9.6-12.9c-5.9,0.4-9.1,4.7-9.6,12.9c0.4,8.2,3.6,12.4,9.6,12.7
		C209.8,444.2,213.1,440,213.5,431.8z"/>
	<path class="st0" d="M288.4,470.8c-12.3,0-22.1-3.7-29.5-11.2c-6.9-6.8-10.7-16.1-11.2-27.8c0.4-11.8,4.1-21.1,11.2-27.8
		c7.3-7.4,17.2-11.2,29.5-11.2c12.3,0,22.2,3.7,29.6,11.2c6.8,6.7,10.6,16,11.2,27.8c-0.6,11.7-4.3,20.9-11.2,27.8
		C310.6,467,300.7,470.8,288.4,470.8z M298,431.8c-0.4-8.2-3.6-12.5-9.6-12.9c-5.9,0.4-9.1,4.7-9.6,12.9c0.4,8.2,3.6,12.4,9.6,12.7
		C294.4,444.2,297.6,440,298,431.8z"/>
	<path class="st0" d="M382.6,433.8c0-9.4-3.2-14.4-9.6-14.9c-6.4,0.5-9.6,5.5-9.6,14.9v34.9h-31v-34c0-13.1,3.7-23.4,11-30.7
		c7.4-7.4,17.3-11.2,29.6-11.2c10,0,18.4,2.4,25.1,7.3c7-4.9,15.4-7.3,25.1-7.3c12.5,0,22.4,3.7,29.6,11.2
		c7.4,7.2,11.2,17.5,11.2,30.7v34h-31.2v-34.9c0-9.4-3.2-14.4-9.6-14.9c-6.4,0.5-9.6,5.5-9.6,14.9v34.9h-31V433.8z"/>
	<path class="st0" d="M485.4,448.3l-15.8-28.1c-3-5.2-4.4-9.3-4.3-12.3c0-1.6,0.4-3.4,1.2-5.6c3.6-6.5,8.8-9.7,15.5-9.5
		c5.9,0.1,10.1,2.1,12.7,6.1l10.7,18.2l11.8-18.2c2.8-3.9,7-5.9,12.7-6.1c6.9-0.1,12.2,3.1,15.7,9.5c0.7,1.3,1.1,3.2,1.2,5.6
		c0.2,3.5-1.3,7.6-4.5,12.3l-31.7,48.6h-28.2c-5.7,0-7.6-2.1-5.6-6.4L485.4,448.3z"/>
</g>
</svg>
